<svg xmlns="http://www.w3.org/2000/svg" xmlns:xlink="http://www.w3.org/1999/xlink" zoomAndPan="magnify" preserveAspectRatio="xMidYMid meet" version="1.0" viewBox="134.54 137.36 100.46 100.5"><defs><clipPath id="1422562ed5"><path d="M 134.542969 137.363281 L 235 137.363281 L 235 237.859375 L 134.542969 237.859375 Z M 134.542969 137.363281 " clip-rule="nonzero"/></clipPath></defs><g clip-path="url(#1422562ed5)"><path fill="#00aa45" d="M 184.652344 137.363281 C 145.695312 137.363281 134.566406 148.527344 134.566406 187.613281 C 134.566406 226.695312 145.722656 237.863281 184.652344 237.863281 C 223.578125 237.863281 234.738281 226.695312 234.738281 187.613281 C 234.738281 148.527344 223.578125 137.363281 184.652344 137.363281 Z M 184.652344 137.363281 " fill-opacity="1" fill-rule="nonzero"/><path fill="#219653" d="M 147.53125 150.367188 C 140.984375 156.9375 138.144531 168.144531 138.144531 187.613281 C 138.144531 207.078125 140.988281 218.285156 147.539062 224.855469 C 154.089844 231.421875 165.261719 234.273438 184.652344 234.273438 C 204.039062 234.273438 215.210938 231.421875 221.761719 224.855469 C 228.3125 218.285156 231.160156 207.078125 231.160156 187.613281 C 231.160156 168.144531 228.3125 156.9375 221.761719 150.367188 C 215.210938 143.800781 204.039062 140.949219 184.652344 140.949219 C 165.25 140.949219 154.078125 143.800781 147.53125 150.367188 Z M 134.566406 187.613281 C 134.566406 148.527344 145.695312 137.363281 184.652344 137.363281 C 223.578125 137.363281 234.738281 148.527344 234.738281 187.613281 C 234.738281 226.695312 223.578125 237.863281 184.652344 237.863281 C 145.722656 237.863281 134.566406 226.695312 134.566406 187.613281 Z M 134.566406 187.613281 " fill-opacity="1" fill-rule="evenodd"/></g><path fill="#24292e" d="M 183 160.691406 L 161.398438 160.691406 L 161.398438 221.710938 L 178.183594 221.710938 L 178.183594 208.949219 L 183 208.949219 C 196.691406 208.949219 207.90625 198.207031 207.90625 184.820312 C 207.90625 171.429688 196.691406 160.691406 183 160.691406 Z M 178.183594 192.597656 L 178.183594 177.042969 L 183 177.042969 C 187.546875 177.042969 191.117188 180.585938 191.117188 184.820312 C 191.117188 189.050781 187.546875 192.597656 183 192.597656 Z M 178.183594 192.597656 " fill-opacity="1" fill-rule="evenodd"/><path fill="#ffffff" d="M 166.761719 158.898438 L 186.578125 158.898438 C 199.34375 158.898438 209.695312 168.894531 209.695312 181.230469 C 209.695312 193.566406 199.34375 203.5625 186.578125 203.5625 L 179.972656 203.5625 L 179.972656 216.324219 L 166.761719 216.324219 Z M 179.972656 190.800781 L 186.578125 190.800781 C 192.050781 190.800781 196.484375 186.515625 196.484375 181.230469 C 196.484375 175.945312 192.050781 171.660156 186.578125 171.660156 L 179.972656 171.660156 Z M 179.972656 190.800781 " fill-opacity="1" fill-rule="evenodd"/><path fill="#24292e" d="M 164.976562 157.101562 L 186.578125 157.101562 C 200.269531 157.101562 211.484375 167.839844 211.484375 181.230469 C 211.484375 194.617188 200.269531 205.359375 186.578125 205.359375 L 181.761719 205.359375 L 181.761719 218.121094 L 164.976562 218.121094 Z M 168.550781 160.691406 L 168.550781 214.53125 L 178.183594 214.53125 L 178.183594 201.769531 L 186.578125 201.769531 C 198.421875 201.769531 207.90625 192.511719 207.90625 181.230469 C 207.90625 169.949219 198.421875 160.691406 186.578125 160.691406 Z M 178.183594 169.863281 L 186.578125 169.863281 C 192.972656 169.863281 198.273438 174.890625 198.273438 181.230469 C 198.273438 187.570312 192.972656 192.597656 186.578125 192.597656 L 178.183594 192.597656 Z M 181.761719 173.453125 L 181.761719 189.007812 L 186.578125 189.007812 C 191.125 189.007812 194.695312 185.460938 194.695312 181.230469 C 194.695312 177 191.125 173.453125 186.578125 173.453125 Z M 181.761719 173.453125 " fill-opacity="1" fill-rule="evenodd"/></svg>